<svg width="24" height="24" viewBox="0 0 24 24" fill="none" xmlns="http://www.w3.org/2000/svg">
<path d="M7.17489 7.82119C7.24648 7.89277 7.26789 8.00042 7.22915 8.09395C7.19041 8.18747 7.09915 8.24845 6.99792 8.24845C6.89669 8.24845 6.80542 8.18747 6.76669 8.09395C6.72795 8.00042 6.74936 7.89277 6.82095 7.82119C6.91878 7.72368 7.07706 7.72368 7.17489 7.82119" stroke="#323232" stroke-width="1.5" stroke-linecap="round" stroke-linejoin="round"/>
<path d="M12.1765 7.82119C12.2481 7.89277 12.2695 8.00042 12.2307 8.09395C12.192 8.18747 12.1007 8.24845 11.9995 8.24845C11.8983 8.24845 11.807 8.18747 11.7683 8.09395C11.7295 8.00042 11.7509 7.89277 11.8225 7.82119C11.9204 7.72368 12.0786 7.72368 12.1765 7.82119" stroke="#323232" stroke-width="1.5" stroke-linecap="round" stroke-linejoin="round"/>
<path d="M17.1791 7.82119C17.2506 7.89277 17.2721 8.00042 17.2333 8.09395C17.1946 8.18747 17.1033 8.24845 17.0021 8.24845C16.9009 8.24845 16.8096 8.18747 16.7709 8.09395C16.7321 8.00042 16.7535 7.89277 16.8251 7.82119C16.9229 7.72368 17.0812 7.72368 17.1791 7.82119" stroke="#323232" stroke-width="1.5" stroke-linecap="round" stroke-linejoin="round"/>
<path d="M9.99917 13.0003H4.99709C4.46639 13.0004 3.95738 12.7897 3.58212 12.4144C3.20686 12.0391 2.99625 11.5301 2.99625 10.9994V4.99693C2.99625 4.46623 3.20686 3.95722 3.58212 3.58196C3.95738 3.2067 4.46639 2.99595 4.99709 2.99609H19.0029C19.5336 2.99595 20.0426 3.2067 20.4179 3.58196C20.7931 3.95722 21.0038 4.46623 21.0038 4.99693V7.99818" stroke="#323232" stroke-width="1.5" stroke-linecap="round" stroke-linejoin="round"/>
<path fill-rule="evenodd" clip-rule="evenodd" d="M13.644 16.6855L11.3146 19.0198C11.1133 19.2227 11.0002 19.4967 10.9996 19.7826V20.9256C10.9996 21.5215 11.4827 22.0046 12.0786 22.0046H13.2264C13.5129 22.005 13.7876 21.8906 13.9892 21.6871L16.3138 19.3577C16.7396 19.5068 17.1868 19.5854 17.6378 19.5907C19.5111 19.6215 21.1884 18.4347 21.7825 16.6578C22.3766 14.881 21.7506 12.924 20.2355 11.8219C18.7204 10.7197 16.6658 10.7267 15.1582 11.8391C13.6506 12.9515 13.0378 14.9127 13.644 16.6854V16.6855Z" stroke="#323232" stroke-width="1.5" stroke-linecap="round" stroke-linejoin="round"/>
<path d="M17.6378 15.2414C17.5688 15.2414 17.5128 15.2974 17.5128 15.3664C17.5128 15.4355 17.5688 15.4915 17.6378 15.4915C17.7069 15.4915 17.7629 15.4355 17.7629 15.3664C17.7629 15.2974 17.7069 15.2414 17.6378 15.2414V15.2414" stroke="#323232" stroke-width="1.5" stroke-linecap="round" stroke-linejoin="round"/>
</svg>
