<svg width="24" height="24" viewBox="0 0 24 24" fill="none" xmlns="http://www.w3.org/2000/svg">
<path d="M22 12.2271C22 11.518 21.9351 10.8362 21.8145 10.1816H12.2041V14.0544H17.6958C17.4546 15.2998 16.731 16.3544 15.6457 17.0635V19.5817H18.9573C20.8868 17.8362 22 15.2726 22 12.2271Z" fill="#4285F4"/>
<path d="M12.2041 22.0001C14.9592 22.0001 17.269 21.1092 18.9573 19.5819L15.6456 17.0637C14.7365 17.6637 13.577 18.0274 12.2041 18.0274C9.551 18.0274 7.29683 16.2728 6.48978 13.9092H3.0946V16.491C4.77364 19.7546 8.2152 22.0001 12.2041 22.0001Z" fill="#34A853"/>
<path d="M6.4898 13.8999C6.28571 13.2999 6.16512 12.6635 6.16512 11.9999C6.16512 11.3363 6.28571 10.6999 6.4898 10.0999V7.51807H3.09462C2.39889 8.86352 2 10.3817 2 11.9999C2 13.6181 2.39889 15.1363 3.09462 16.4817L5.7384 14.4635L6.4898 13.8999Z" fill="#FBBC05"/>
<path d="M12.2041 5.98182C13.7069 5.98182 15.0427 6.49091 16.1094 7.47273L19.0315 4.60909C17.2597 2.99091 14.9592 2 12.2041 2C8.2152 2 4.77364 4.24546 3.0946 7.51819L6.48978 10.1C7.29683 7.73637 9.55101 5.98182 12.2041 5.98182Z" fill="#EA4335"/>
</svg>
